<svg xmlns="http://www.w3.org/2000/svg" width="1200" height="630" viewBox="0 0 1200 630">
  <rect width="1200" height="630" fill="#f6f4ee"/>
  <path d="M0 0h1200v630H0z" fill="#f6f4ee"/>
  <g opacity=".12" stroke="#12151f">
    <path d="M0 72h1200M0 144h1200M0 216h1200M0 288h1200M0 360h1200M0 432h1200M0 504h1200M0 576h1200"/>
    <path d="M72 0v630M144 0v630M216 0v630M288 0v630M360 0v630M432 0v630M504 0v630M576 0v630M648 0v630M720 0v630M792 0v630M864 0v630M936 0v630M1008 0v630M1080 0v630M1152 0v630"/>
  </g>
  <rect x="84" y="78" width="92" height="92" rx="16" fill="#12151f"/>
  <path d="M106 139l22-15 16 10 31-41" fill="none" stroke="#2a6df4" stroke-width="9" stroke-linecap="round" stroke-linejoin="round"/>
  <text x="84" y="252" font-family="Arial, sans-serif" font-size="32" font-weight="700" letter-spacing="5" fill="#2a6df4">PROOF-OF-WORK PORTFOLIO</text>
  <text x="84" y="350" font-family="Arial, sans-serif" font-size="74" font-weight="800" fill="#12151f">Andrey Volkov</text>
  <text x="84" y="430" font-family="Arial, sans-serif" font-size="44" font-weight="700" fill="#12151f">AI conversion sites &amp; chatbots</text>
  <text x="84" y="500" font-family="Arial, sans-serif" font-size="30" fill="#667085">Five live demos: real estate, dental, solar, SaaS, restaurant</text>
  <g transform="translate(842 164)">
    <rect width="258" height="302" rx="18" fill="#12151f"/>
    <rect x="24" y="28" width="210" height="46" rx="8" fill="#2a6df4"/>
    <rect x="24" y="96" width="166" height="34" rx="8" fill="#fffdf8" opacity=".9"/>
    <rect x="68" y="150" width="166" height="34" rx="8" fill="#2a6df4"/>
    <rect x="24" y="220" width="210" height="46" rx="8" fill="#fffdf8" opacity=".9"/>
  </g>
</svg>
